<mxfile host="Electron" agent="Mozilla/5.0 (X11; Linux x86_64) AppleWebKit/537.36 (KHTML, like Gecko) draw.io/24.7.8 Chrome/128.0.6613.36 Electron/32.0.1 Safari/537.36" version="24.7.8">
  <diagram id="C5RBs43oDa-KdzZeNtuy" name="Page-1">
    <mxGraphModel dx="604" dy="743" grid="1" gridSize="10" guides="1" tooltips="1" connect="1" arrows="1" fold="1" page="1" pageScale="1" pageWidth="827" pageHeight="1169" math="0" shadow="0">
      <root>
        <mxCell id="WIyWlLk6GJQsqaUBKTNV-0" />
        <mxCell id="WIyWlLk6GJQsqaUBKTNV-1" parent="WIyWlLk6GJQsqaUBKTNV-0" />
        <mxCell id="xRERBsMlyf0qh0sPlx4--10" value="" style="edgeStyle=orthogonalEdgeStyle;rounded=0;orthogonalLoop=1;jettySize=auto;html=1;" edge="1" parent="WIyWlLk6GJQsqaUBKTNV-1" source="xRERBsMlyf0qh0sPlx4--0" target="xRERBsMlyf0qh0sPlx4--2">
          <mxGeometry relative="1" as="geometry" />
        </mxCell>
        <mxCell id="xRERBsMlyf0qh0sPlx4--0" value="Start" style="ellipse;whiteSpace=wrap;html=1;fontSize=16;" vertex="1" parent="WIyWlLk6GJQsqaUBKTNV-1">
          <mxGeometry x="364" y="69" width="100" height="60" as="geometry" />
        </mxCell>
        <mxCell id="xRERBsMlyf0qh0sPlx4--1" value="End" style="ellipse;whiteSpace=wrap;html=1;fontSize=16;" vertex="1" parent="WIyWlLk6GJQsqaUBKTNV-1">
          <mxGeometry x="364" y="1039" width="100" height="60" as="geometry" />
        </mxCell>
        <mxCell id="xRERBsMlyf0qh0sPlx4--11" value="" style="edgeStyle=orthogonalEdgeStyle;rounded=0;orthogonalLoop=1;jettySize=auto;html=1;" edge="1" parent="WIyWlLk6GJQsqaUBKTNV-1" source="xRERBsMlyf0qh0sPlx4--2" target="xRERBsMlyf0qh0sPlx4--3">
          <mxGeometry relative="1" as="geometry" />
        </mxCell>
        <mxCell id="xRERBsMlyf0qh0sPlx4--2" value="&lt;div&gt;fiveJug = 0&lt;/div&gt;&lt;div&gt;threeJug = 0&lt;/div&gt;&lt;div&gt;waterSupply = âˆž&lt;/div&gt;" style="rounded=0;whiteSpace=wrap;html=1;" vertex="1" parent="WIyWlLk6GJQsqaUBKTNV-1">
          <mxGeometry x="354" y="189" width="120" height="80" as="geometry" />
        </mxCell>
        <mxCell id="xRERBsMlyf0qh0sPlx4--12" value="" style="edgeStyle=orthogonalEdgeStyle;rounded=0;orthogonalLoop=1;jettySize=auto;html=1;" edge="1" parent="WIyWlLk6GJQsqaUBKTNV-1" source="xRERBsMlyf0qh0sPlx4--3" target="xRERBsMlyf0qh0sPlx4--4">
          <mxGeometry relative="1" as="geometry" />
        </mxCell>
        <mxCell id="xRERBsMlyf0qh0sPlx4--3" value="&lt;div&gt;fiveJug = fiveJug + 5&lt;/div&gt;&lt;div&gt;waterSupply = waterSupply - fiveJug&lt;/div&gt;" style="rounded=0;whiteSpace=wrap;html=1;" vertex="1" parent="WIyWlLk6GJQsqaUBKTNV-1">
          <mxGeometry x="294" y="329" width="240" height="60" as="geometry" />
        </mxCell>
        <mxCell id="xRERBsMlyf0qh0sPlx4--13" value="" style="edgeStyle=orthogonalEdgeStyle;rounded=0;orthogonalLoop=1;jettySize=auto;html=1;" edge="1" parent="WIyWlLk6GJQsqaUBKTNV-1" source="xRERBsMlyf0qh0sPlx4--4" target="xRERBsMlyf0qh0sPlx4--5">
          <mxGeometry relative="1" as="geometry" />
        </mxCell>
        <mxCell id="xRERBsMlyf0qh0sPlx4--4" value="&lt;div&gt;threeJug = threeJug + 3&lt;/div&gt;&lt;div&gt;fiveJug = fiveJug - 3&lt;/div&gt;" style="rounded=0;whiteSpace=wrap;html=1;" vertex="1" parent="WIyWlLk6GJQsqaUBKTNV-1">
          <mxGeometry x="324" y="423.5" width="180" height="60" as="geometry" />
        </mxCell>
        <mxCell id="xRERBsMlyf0qh0sPlx4--14" value="" style="edgeStyle=orthogonalEdgeStyle;rounded=0;orthogonalLoop=1;jettySize=auto;html=1;" edge="1" parent="WIyWlLk6GJQsqaUBKTNV-1" source="xRERBsMlyf0qh0sPlx4--5" target="xRERBsMlyf0qh0sPlx4--6">
          <mxGeometry relative="1" as="geometry" />
        </mxCell>
        <mxCell id="xRERBsMlyf0qh0sPlx4--5" value="&lt;div&gt;waterSupply = waterSupply + threeJug&lt;/div&gt;&lt;div&gt;threeJug = threeJug - threeJug&lt;/div&gt;" style="rounded=0;whiteSpace=wrap;html=1;" vertex="1" parent="WIyWlLk6GJQsqaUBKTNV-1">
          <mxGeometry x="294" y="519" width="240" height="60" as="geometry" />
        </mxCell>
        <mxCell id="xRERBsMlyf0qh0sPlx4--15" value="" style="edgeStyle=orthogonalEdgeStyle;rounded=0;orthogonalLoop=1;jettySize=auto;html=1;" edge="1" parent="WIyWlLk6GJQsqaUBKTNV-1" source="xRERBsMlyf0qh0sPlx4--6" target="xRERBsMlyf0qh0sPlx4--7">
          <mxGeometry relative="1" as="geometry" />
        </mxCell>
        <mxCell id="xRERBsMlyf0qh0sPlx4--6" value="&lt;div&gt;threeJug = threeJug + fiveJug&lt;/div&gt;&lt;div&gt;fiveJug = fiveJug - fiveJug&lt;/div&gt;" style="rounded=0;whiteSpace=wrap;html=1;" vertex="1" parent="WIyWlLk6GJQsqaUBKTNV-1">
          <mxGeometry x="314" y="619" width="200" height="60" as="geometry" />
        </mxCell>
        <mxCell id="xRERBsMlyf0qh0sPlx4--16" value="" style="edgeStyle=orthogonalEdgeStyle;rounded=0;orthogonalLoop=1;jettySize=auto;html=1;" edge="1" parent="WIyWlLk6GJQsqaUBKTNV-1" source="xRERBsMlyf0qh0sPlx4--7" target="xRERBsMlyf0qh0sPlx4--8">
          <mxGeometry relative="1" as="geometry" />
        </mxCell>
        <mxCell id="xRERBsMlyf0qh0sPlx4--7" value="&lt;div&gt;fiveJug = fiveJug + 5&lt;/div&gt;&lt;div&gt;waterSupply = waterSupply - fiveJug&lt;/div&gt;" style="rounded=0;whiteSpace=wrap;html=1;" vertex="1" parent="WIyWlLk6GJQsqaUBKTNV-1">
          <mxGeometry x="294" y="719" width="240" height="60" as="geometry" />
        </mxCell>
        <mxCell id="xRERBsMlyf0qh0sPlx4--17" value="" style="edgeStyle=orthogonalEdgeStyle;rounded=0;orthogonalLoop=1;jettySize=auto;html=1;" edge="1" parent="WIyWlLk6GJQsqaUBKTNV-1" source="xRERBsMlyf0qh0sPlx4--8" target="xRERBsMlyf0qh0sPlx4--9">
          <mxGeometry relative="1" as="geometry" />
        </mxCell>
        <mxCell id="xRERBsMlyf0qh0sPlx4--8" value="&lt;div&gt;leftToFill = 3 - threeJug&lt;/div&gt;&lt;div&gt;threeJug = threeJug + leftToFill&lt;/div&gt;&lt;div&gt;fiveJug = fiveJug - leftToFill&lt;/div&gt;" style="rounded=0;whiteSpace=wrap;html=1;" vertex="1" parent="WIyWlLk6GJQsqaUBKTNV-1">
          <mxGeometry x="314" y="819" width="200" height="80" as="geometry" />
        </mxCell>
        <mxCell id="xRERBsMlyf0qh0sPlx4--18" value="" style="edgeStyle=orthogonalEdgeStyle;rounded=0;orthogonalLoop=1;jettySize=auto;html=1;" edge="1" parent="WIyWlLk6GJQsqaUBKTNV-1" source="xRERBsMlyf0qh0sPlx4--9" target="xRERBsMlyf0qh0sPlx4--1">
          <mxGeometry relative="1" as="geometry" />
        </mxCell>
        <mxCell id="xRERBsMlyf0qh0sPlx4--9" value="Print &quot;3L Jug = &quot;, threeJug, &quot;, 5L Jug = &quot;, fiveJug" style="shape=parallelogram;perimeter=parallelogramPerimeter;whiteSpace=wrap;html=1;fixedSize=1;" vertex="1" parent="WIyWlLk6GJQsqaUBKTNV-1">
          <mxGeometry x="254" y="959" width="320" height="40" as="geometry" />
        </mxCell>
      </root>
    </mxGraphModel>
  </diagram>
</mxfile>
